<?xml version="1.0" encoding="UTF-8" standalone="no"?>
<!DOCTYPE svg PUBLIC "-//W3C//DTD SVG 1.1//EN"
 "http://www.w3.org/Graphics/SVG/1.1/DTD/svg11.dtd">
<!-- Generated by graphviz version 2.43.0 (0)
 -->
<!-- Title: RenderGraph Pages: 1 -->
<svg width="4984pt" height="536pt"
 viewBox="0.00 0.00 4984.00 536.00" xmlns="http://www.w3.org/2000/svg" xmlns:xlink="http://www.w3.org/1999/xlink">
<g id="graph0" class="graph" transform="scale(1 1) rotate(0) translate(4 532)">
<title>RenderGraph</title>
<polygon fill="#0d1117" stroke="transparent" points="-4,4 -4,-532 4980,-532 4980,4 -4,4"/>
<g id="clust1" class="cluster">
<title>cluster_core_2d</title>
<path fill="#343a42" stroke="#343a42" d="M51,-8C51,-8 2805,-8 2805,-8 2811,-8 2817,-14 2817,-20 2817,-20 2817,-168 2817,-168 2817,-174 2811,-180 2805,-180 2805,-180 51,-180 51,-180 45,-180 39,-174 39,-168 39,-168 39,-20 39,-20 39,-14 45,-8 51,-8"/>
<text text-anchor="middle" x="1428" y="-164.8" font-family="Times,serif" font-size="14.00" fill="white">core_2d</text>
</g>
<g id="clust2" class="cluster">
<title>cluster_core_2d_draw_ui</title>
<path fill="#6f90ad" stroke="#6f90ad" d="M78,-68C78,-68 154,-68 154,-68 160,-68 166,-74 166,-80 166,-80 166,-137 166,-137 166,-143 160,-149 154,-149 154,-149 78,-149 78,-149 72,-149 66,-143 66,-137 66,-137 66,-80 66,-80 66,-74 72,-68 78,-68"/>
<text text-anchor="middle" x="116" y="-133.8" font-family="Times,serif" font-size="14.00">draw_ui</text>
</g>
<g id="clust3" class="cluster">
<title>cluster_core_3d</title>
<path fill="#343a42" stroke="#343a42" d="M24,-188C24,-188 4956,-188 4956,-188 4962,-188 4968,-194 4968,-200 4968,-200 4968,-377 4968,-377 4968,-383 4962,-389 4956,-389 4956,-389 24,-389 24,-389 18,-389 12,-383 12,-377 12,-377 12,-200 12,-200 12,-194 18,-188 24,-188"/>
<text text-anchor="middle" x="2490" y="-373.8" font-family="Times,serif" font-size="14.00" fill="white">core_3d</text>
</g>
<g id="clust4" class="cluster">
<title>cluster_core_3d_draw_ui</title>
<path fill="#6f90ad" stroke="#6f90ad" d="M78,-262C78,-262 154,-262 154,-262 160,-262 166,-268 166,-274 166,-274 166,-331 166,-331 166,-337 160,-343 154,-343 154,-343 78,-343 78,-343 72,-343 66,-337 66,-331 66,-331 66,-274 66,-274 66,-268 72,-262 78,-262"/>
<text text-anchor="middle" x="116" y="-327.8" font-family="Times,serif" font-size="14.00">draw_ui</text>
</g>
<g id="clust5" class="cluster">
<title>cluster_raytracer</title>
<path fill="#343a42" stroke="#343a42" d="M20,-397C20,-397 512,-397 512,-397 518,-397 524,-403 524,-409 524,-409 524,-466 524,-466 524,-472 518,-478 512,-478 512,-478 20,-478 20,-478 14,-478 8,-472 8,-466 8,-466 8,-409 8,-409 8,-403 14,-397 20,-397"/>
<text text-anchor="middle" x="266" y="-462.8" font-family="Times,serif" font-size="14.00" fill="white">raytracer</text>
</g>
<!-- _core_2d_draw_ui__core_2d_draw_uiui_pass -->
<g id="node1" class="node">
<title>_core_2d_draw_ui__core_2d_draw_uiui_pass</title>
<text text-anchor="start" x="90" y="-98.8" font-family="Helvetica,sans-Serif" font-size="14.00" fill="white">ui_pass</text>
<text text-anchor="start" x="87" y="-88" font-family="Helvetica,sans-Serif" font-size="10.00" fill="red">UiPassNode</text>
<path fill="none" stroke="white" d="M93.33,-80C93.33,-80 138.67,-80 138.67,-80 144.33,-80 150,-85.67 150,-91.33 150,-91.33 150,-102.67 150,-102.67 150,-108.33 144.33,-114 138.67,-114 138.67,-114 93.33,-114 93.33,-114 87.67,-114 82,-108.33 82,-102.67 82,-102.67 82,-91.33 82,-91.33 82,-85.67 87.67,-80 93.33,-80"/>
</g>
<!-- _core_2d__core_2dcontrast_adaptive_sharpening -->
<g id="node2" class="node">
<title>_core_2d__core_2dcontrast_adaptive_sharpening</title>
<text text-anchor="start" x="1566" y="-115.8" font-family="Helvetica,sans-Serif" font-size="14.00" fill="white">contrast_adaptive_sharpening</text>
<text text-anchor="start" x="1648" y="-105" font-family="Helvetica,sans-Serif" font-size="10.00" fill="red">CASNode</text>
<path fill="none" stroke="white" d="M1572.33,-97C1572.33,-97 1769.67,-97 1769.67,-97 1775.33,-97 1781,-102.67 1781,-108.33 1781,-108.33 1781,-119.67 1781,-119.67 1781,-125.33 1775.33,-131 1769.67,-131 1769.67,-131 1572.33,-131 1572.33,-131 1566.67,-131 1561,-125.33 1561,-119.67 1561,-119.67 1561,-108.33 1561,-108.33 1561,-102.67 1566.67,-97 1572.33,-97"/>
</g>
<!-- _core_2d__core_2dend_main_pass_post_processing -->
<g id="node5" class="node">
<title>_core_2d__core_2dend_main_pass_post_processing</title>
<text text-anchor="start" x="1917" y="-75.8" font-family="Helvetica,sans-Serif" font-size="14.00" fill="white">end_main_pass_post_processing</text>
<text text-anchor="start" x="2001" y="-65" font-family="Helvetica,sans-Serif" font-size="10.00" fill="red">EmptyNode</text>
<path fill="none" stroke="white" d="M1923.33,-57C1923.33,-57 2136.67,-57 2136.67,-57 2142.33,-57 2148,-62.67 2148,-68.33 2148,-68.33 2148,-79.67 2148,-79.67 2148,-85.33 2142.33,-91 2136.67,-91 2136.67,-91 1923.33,-91 1923.33,-91 1917.67,-91 1912,-85.33 1912,-79.67 1912,-79.67 1912,-68.33 1912,-68.33 1912,-62.67 1917.67,-57 1923.33,-57"/>
</g>
<!-- _core_2d__core_2dcontrast_adaptive_sharpening&#45;&gt;_core_2d__core_2dend_main_pass_post_processing -->
<g id="edge6" class="edge">
<title>_core_2d__core_2dcontrast_adaptive_sharpening:e&#45;&gt;_core_2d__core_2dend_main_pass_post_processing:w</title>
<path fill="none" stroke="white" d="M1779,-114C1838.03,-114 1850.14,-78.4 1903.85,-74.37"/>
<polygon fill="white" stroke="white" points="1904.13,-77.86 1914,-74 1903.88,-70.87 1904.13,-77.86"/>
</g>
<!-- _core_2d__core_2dmain_pass -->
<g id="node3" class="node">
<title>_core_2d__core_2dmain_pass</title>
<text text-anchor="start" x="386" y="-48.8" font-family="Helvetica,sans-Serif" font-size="14.00" fill="white">main_pass</text>
<text text-anchor="start" x="381" y="-38" font-family="Helvetica,sans-Serif" font-size="10.00" fill="red">MainPass2dNode</text>
<path fill="none" stroke="white" d="M387.33,-30C387.33,-30 458.67,-30 458.67,-30 464.33,-30 470,-35.67 470,-41.33 470,-41.33 470,-52.67 470,-52.67 470,-58.33 464.33,-64 458.67,-64 458.67,-64 387.33,-64 387.33,-64 381.67,-64 376,-58.33 376,-52.67 376,-52.67 376,-41.33 376,-41.33 376,-35.67 381.67,-30 387.33,-30"/>
</g>
<!-- _core_2d__core_2dui_pass -->
<g id="node6" class="node">
<title>_core_2d__core_2dui_pass</title>
<text text-anchor="start" x="2339" y="-38.8" font-family="Helvetica,sans-Serif" font-size="14.00" fill="white">ui_pass</text>
<text text-anchor="start" x="2309" y="-28" font-family="Helvetica,sans-Serif" font-size="10.00" fill="red">RunGraphOnViewNode</text>
<path fill="none" stroke="white" d="M2315.33,-20C2315.33,-20 2414.67,-20 2414.67,-20 2420.33,-20 2426,-25.67 2426,-31.33 2426,-31.33 2426,-42.67 2426,-42.67 2426,-48.33 2420.33,-54 2414.67,-54 2414.67,-54 2315.33,-54 2315.33,-54 2309.67,-54 2304,-48.33 2304,-42.67 2304,-42.67 2304,-31.33 2304,-31.33 2304,-25.67 2309.67,-20 2315.33,-20"/>
</g>
<!-- _core_2d__core_2dmain_pass&#45;&gt;_core_2d__core_2dui_pass -->
<g id="edge7" class="edge">
<title>_core_2d__core_2dmain_pass:e&#45;&gt;_core_2d__core_2dui_pass:w</title>
<path fill="none" stroke="white" d="M468,-47C540.44,-47 557.72,-33.81 630,-29 828.72,-15.77 878.84,-19 1078,-19 1078,-19 1078,-19 1672,-19 1950.45,-19 2022.36,-36.56 2295.77,-36.99"/>
<polygon fill="white" stroke="white" points="2296,-40.49 2306,-37 2296,-33.49 2296,-40.49"/>
</g>
<!-- _core_2d__core_2dbloom -->
<g id="node7" class="node">
<title>_core_2d__core_2dbloom</title>
<text text-anchor="start" x="742.5" y="-60.8" font-family="Helvetica,sans-Serif" font-size="14.00" fill="white">bloom</text>
<text text-anchor="start" x="685" y="-50" font-family="Helvetica,sans-Serif" font-size="10.00" fill="red">ViewNodeRunner&lt;BloomNode&gt;</text>
<path fill="none" stroke="white" d="M691.33,-42C691.33,-42 836.67,-42 836.67,-42 842.33,-42 848,-47.67 848,-53.33 848,-53.33 848,-64.67 848,-64.67 848,-70.33 842.33,-76 836.67,-76 836.67,-76 691.33,-76 691.33,-76 685.67,-76 680,-70.33 680,-64.67 680,-64.67 680,-53.33 680,-53.33 680,-47.67 685.67,-42 691.33,-42"/>
</g>
<!-- _core_2d__core_2dmain_pass&#45;&gt;_core_2d__core_2dbloom -->
<g id="edge9" class="edge">
<title>_core_2d__core_2dmain_pass:e&#45;&gt;_core_2d__core_2dbloom:w</title>
<path fill="none" stroke="white" d="M468,-47C559.82,-47 584.95,-58.15 671.95,-58.95"/>
<polygon fill="white" stroke="white" points="671.98,-62.45 682,-59 672.02,-55.45 671.98,-62.45"/>
</g>
<!-- _core_2d__core_2dtonemapping -->
<g id="node9" class="node">
<title>_core_2d__core_2dtonemapping</title>
<text text-anchor="start" x="1032.5" y="-90.8" font-family="Helvetica,sans-Serif" font-size="14.00" fill="white">tonemapping</text>
<text text-anchor="start" x="983" y="-80" font-family="Helvetica,sans-Serif" font-size="10.00" fill="red">ViewNodeRunner&lt;TonemappingNode&gt;</text>
<path fill="none" stroke="white" d="M989.33,-72C989.33,-72 1168.67,-72 1168.67,-72 1174.33,-72 1180,-77.67 1180,-83.33 1180,-83.33 1180,-94.67 1180,-94.67 1180,-100.33 1174.33,-106 1168.67,-106 1168.67,-106 989.33,-106 989.33,-106 983.67,-106 978,-100.33 978,-94.67 978,-94.67 978,-83.33 978,-83.33 978,-77.67 983.67,-72 989.33,-72"/>
</g>
<!-- _core_2d__core_2dmain_pass&#45;&gt;_core_2d__core_2dtonemapping -->
<g id="edge11" class="edge">
<title>_core_2d__core_2dmain_pass:e&#45;&gt;_core_2d__core_2dtonemapping:w</title>
<path fill="none" stroke="white" d="M468,-47C542.38,-47 556.22,-79.59 630,-89 780.84,-108.24 822.58,-89.86 969.69,-89.03"/>
<polygon fill="white" stroke="white" points="970.01,-92.53 980,-89 969.99,-85.53 970.01,-92.53"/>
</g>
<!-- _core_2d__core_2dmsaa_writeback -->
<g id="node4" class="node">
<title>_core_2d__core_2dmsaa_writeback</title>
<text text-anchor="start" x="60" y="-38.8" font-family="Helvetica,sans-Serif" font-size="14.00" fill="white">msaa_writeback</text>
<text text-anchor="start" x="65" y="-28" font-family="Helvetica,sans-Serif" font-size="10.00" fill="red">MsaaWritebackNode</text>
<path fill="none" stroke="white" d="M66.33,-20C66.33,-20 165.67,-20 165.67,-20 171.33,-20 177,-25.67 177,-31.33 177,-31.33 177,-42.67 177,-42.67 177,-48.33 171.33,-54 165.67,-54 165.67,-54 66.33,-54 66.33,-54 60.67,-54 55,-48.33 55,-42.67 55,-42.67 55,-31.33 55,-31.33 55,-25.67 60.67,-20 66.33,-20"/>
</g>
<!-- _core_2d__core_2dmsaa_writeback&#45;&gt;_core_2d__core_2dmain_pass -->
<g id="edge3" class="edge">
<title>_core_2d__core_2dmsaa_writeback:e&#45;&gt;_core_2d__core_2dmain_pass:w</title>
<path fill="none" stroke="white" d="M175,-37C261.89,-37 285.87,-46.25 367.97,-46.96"/>
<polygon fill="white" stroke="white" points="367.99,-50.46 378,-47 368.01,-43.46 367.99,-50.46"/>
</g>
<!-- _core_2d__core_2dend_main_pass_post_processing&#45;&gt;_core_2d__core_2dui_pass -->
<g id="edge8" class="edge">
<title>_core_2d__core_2dend_main_pass_post_processing:e&#45;&gt;_core_2d__core_2dui_pass:w</title>
<path fill="none" stroke="white" d="M2146,-74C2215.42,-74 2231.5,-40.53 2295.72,-37.26"/>
<polygon fill="white" stroke="white" points="2296.09,-40.75 2306,-37 2295.92,-33.75 2296.09,-40.75"/>
</g>
<!-- _core_2d__core_2dupscaling -->
<g id="node10" class="node">
<title>_core_2d__core_2dupscaling</title>
<text text-anchor="start" x="2674.5" y="-58.8" font-family="Helvetica,sans-Serif" font-size="14.00" fill="white">upscaling</text>
<text text-anchor="start" x="2620.5" y="-48" font-family="Helvetica,sans-Serif" font-size="10.00" fill="red">ViewNodeRunner&lt;UpscalingNode&gt;</text>
<path fill="none" stroke="white" d="M2626.33,-40C2626.33,-40 2789.67,-40 2789.67,-40 2795.33,-40 2801,-45.67 2801,-51.33 2801,-51.33 2801,-62.67 2801,-62.67 2801,-68.33 2795.33,-74 2789.67,-74 2789.67,-74 2626.33,-74 2626.33,-74 2620.67,-74 2615,-68.33 2615,-62.67 2615,-62.67 2615,-51.33 2615,-51.33 2615,-45.67 2620.67,-40 2626.33,-40"/>
</g>
<!-- _core_2d__core_2dend_main_pass_post_processing&#45;&gt;_core_2d__core_2dupscaling -->
<g id="edge13" class="edge">
<title>_core_2d__core_2dend_main_pass_post_processing:e&#45;&gt;_core_2d__core_2dupscaling:w</title>
<path fill="none" stroke="white" d="M2146,-74C2304.25,-74 2343.97,-75.41 2502,-67 2549.73,-64.46 2563.81,-57.97 2607,-57.1"/>
<polygon fill="white" stroke="white" points="2607.03,-60.6 2617,-57 2606.97,-53.6 2607.03,-60.6"/>
</g>
<!-- _core_2d__core_2dui_pass&#45;&gt;_core_2d__core_2dupscaling -->
<g id="edge14" class="edge">
<title>_core_2d__core_2dui_pass:e&#45;&gt;_core_2d__core_2dupscaling:w</title>
<path fill="none" stroke="white" d="M2424,-37C2506.7,-37 2528.97,-55.39 2606.71,-56.9"/>
<polygon fill="white" stroke="white" points="2606.97,-60.4 2617,-57 2607.03,-53.4 2606.97,-60.4"/>
</g>
<!-- _core_2d__core_2dbloom&#45;&gt;_core_2d__core_2dtonemapping -->
<g id="edge12" class="edge">
<title>_core_2d__core_2dbloom:e&#45;&gt;_core_2d__core_2dtonemapping:w</title>
<path fill="none" stroke="white" d="M846,-59C903.45,-59 917.4,-85.59 969.76,-88.7"/>
<polygon fill="white" stroke="white" points="969.9,-92.21 980,-89 970.11,-85.21 969.9,-92.21"/>
</g>
<!-- _core_2d__core_2dfxaa -->
<g id="node8" class="node">
<title>_core_2d__core_2dfxaa</title>
<text text-anchor="start" x="1333.5" y="-90.8" font-family="Helvetica,sans-Serif" font-size="14.00" fill="white">fxaa</text>
<text text-anchor="start" x="1273.5" y="-80" font-family="Helvetica,sans-Serif" font-size="10.00" fill="red">ViewNodeRunner&lt;FxaaNode&gt;</text>
<path fill="none" stroke="white" d="M1279.33,-72C1279.33,-72 1418.67,-72 1418.67,-72 1424.33,-72 1430,-77.67 1430,-83.33 1430,-83.33 1430,-94.67 1430,-94.67 1430,-100.33 1424.33,-106 1418.67,-106 1418.67,-106 1279.33,-106 1279.33,-106 1273.67,-106 1268,-100.33 1268,-94.67 1268,-94.67 1268,-83.33 1268,-83.33 1268,-77.67 1273.67,-72 1279.33,-72"/>
</g>
<!-- _core_2d__core_2dfxaa&#45;&gt;_core_2d__core_2dcontrast_adaptive_sharpening -->
<g id="edge2" class="edge">
<title>_core_2d__core_2dfxaa:e&#45;&gt;_core_2d__core_2dcontrast_adaptive_sharpening:w</title>
<path fill="none" stroke="white" d="M1428,-89C1485.44,-89 1500.3,-111.16 1552.75,-113.75"/>
<polygon fill="white" stroke="white" points="1552.92,-117.26 1563,-114 1553.09,-110.26 1552.92,-117.26"/>
</g>
<!-- _core_2d__core_2dfxaa&#45;&gt;_core_2d__core_2dend_main_pass_post_processing -->
<g id="edge5" class="edge">
<title>_core_2d__core_2dfxaa:e&#45;&gt;_core_2d__core_2dend_main_pass_post_processing:w</title>
<path fill="none" stroke="white" d="M1428,-89C1464.51,-89 1473.52,-85.56 1510,-84 1686.03,-76.46 1732.63,-74.09 1903.88,-74"/>
<polygon fill="white" stroke="white" points="1904,-77.5 1914,-74 1904,-70.5 1904,-77.5"/>
</g>
<!-- _core_2d__core_2dtonemapping&#45;&gt;_core_2d__core_2dcontrast_adaptive_sharpening -->
<g id="edge1" class="edge">
<title>_core_2d__core_2dtonemapping:e&#45;&gt;_core_2d__core_2dcontrast_adaptive_sharpening:w</title>
<path fill="none" stroke="white" d="M1178,-89C1216.81,-89 1221.79,-112.23 1260,-119 1389.25,-141.9 1426.44,-115.41 1552.93,-114.05"/>
<polygon fill="white" stroke="white" points="1553.02,-117.55 1563,-114 1552.98,-110.55 1553.02,-117.55"/>
</g>
<!-- _core_2d__core_2dtonemapping&#45;&gt;_core_2d__core_2dend_main_pass_post_processing -->
<g id="edge4" class="edge">
<title>_core_2d__core_2dtonemapping:e&#45;&gt;_core_2d__core_2dend_main_pass_post_processing:w</title>
<path fill="none" stroke="white" d="M1178,-89C1216.81,-89 1221.79,-65.77 1260,-59 1337.9,-45.2 1358.9,-57.9 1438,-59 1613.16,-61.44 1656.95,-63.29 1832,-70 1864.76,-71.26 1875.39,-73.48 1903.67,-73.92"/>
<polygon fill="white" stroke="white" points="1903.97,-77.43 1914,-74 1904.03,-70.43 1903.97,-77.43"/>
</g>
<!-- _core_2d__core_2dtonemapping&#45;&gt;_core_2d__core_2dfxaa -->
<g id="edge10" class="edge">
<title>_core_2d__core_2dtonemapping:e&#45;&gt;_core_2d__core_2dfxaa:w</title>
<path fill="none" stroke="white" d="M1178,-89C1215.22,-89 1227.03,-89 1259.68,-89"/>
<polygon fill="white" stroke="white" points="1260,-92.5 1270,-89 1260,-85.5 1260,-92.5"/>
</g>
<!-- _core_3d_draw_ui__core_3d_draw_uiui_pass -->
<g id="node11" class="node">
<title>_core_3d_draw_ui__core_3d_draw_uiui_pass</title>
<text text-anchor="start" x="90" y="-292.8" font-family="Helvetica,sans-Serif" font-size="14.00" fill="white">ui_pass</text>
<text text-anchor="start" x="87" y="-282" font-family="Helvetica,sans-Serif" font-size="10.00" fill="red">UiPassNode</text>
<path fill="none" stroke="white" d="M93.33,-274C93.33,-274 138.67,-274 138.67,-274 144.33,-274 150,-279.67 150,-285.33 150,-285.33 150,-296.67 150,-296.67 150,-302.33 144.33,-308 138.67,-308 138.67,-308 93.33,-308 93.33,-308 87.67,-308 82,-302.33 82,-296.67 82,-296.67 82,-285.33 82,-285.33 82,-279.67 87.67,-274 93.33,-274"/>
</g>
<!-- _core_3d__core_3dcontrast_adaptive_sharpening -->
<g id="node12" class="node">
<title>_core_3d__core_3dcontrast_adaptive_sharpening</title>
<text text-anchor="start" x="3929" y="-298.8" font-family="Helvetica,sans-Serif" font-size="14.00" fill="white">contrast_adaptive_sharpening</text>
<text text-anchor="start" x="4011" y="-288" font-family="Helvetica,sans-Serif" font-size="10.00" fill="red">CASNode</text>
<path fill="none" stroke="white" d="M3935.33,-280C3935.33,-280 4132.67,-280 4132.67,-280 4138.33,-280 4144,-285.67 4144,-291.33 4144,-291.33 4144,-302.67 4144,-302.67 4144,-308.33 4138.33,-314 4132.67,-314 4132.67,-314 3935.33,-314 3935.33,-314 3929.67,-314 3924,-308.33 3924,-302.67 3924,-302.67 3924,-291.33 3924,-291.33 3924,-285.67 3929.67,-280 3935.33,-280"/>
</g>
<!-- _core_3d__core_3dend_main_pass_post_processing -->
<g id="node16" class="node">
<title>_core_3d__core_3dend_main_pass_post_processing</title>
<text text-anchor="start" x="4237" y="-258.8" font-family="Helvetica,sans-Serif" font-size="14.00" fill="white">end_main_pass_post_processing</text>
<text text-anchor="start" x="4321" y="-248" font-family="Helvetica,sans-Serif" font-size="10.00" fill="red">EmptyNode</text>
<path fill="none" stroke="white" d="M4243.33,-240C4243.33,-240 4456.67,-240 4456.67,-240 4462.33,-240 4468,-245.67 4468,-251.33 4468,-251.33 4468,-262.67 4468,-262.67 4468,-268.33 4462.33,-274 4456.67,-274 4456.67,-274 4243.33,-274 4243.33,-274 4237.67,-274 4232,-268.33 4232,-262.67 4232,-262.67 4232,-251.33 4232,-251.33 4232,-245.67 4237.67,-240 4243.33,-240"/>
</g>
<!-- _core_3d__core_3dcontrast_adaptive_sharpening&#45;&gt;_core_3d__core_3dend_main_pass_post_processing -->
<g id="edge20" class="edge">
<title>_core_3d__core_3dcontrast_adaptive_sharpening:e&#45;&gt;_core_3d__core_3dend_main_pass_post_processing:w</title>
<path fill="none" stroke="white" d="M4142,-297C4182.93,-297 4188.67,-263.29 4223.82,-257.76"/>
<polygon fill="white" stroke="white" points="4224.29,-261.24 4234,-257 4223.77,-254.26 4224.29,-261.24"/>
</g>
<!-- _core_3d__core_3dmsaa_writeback -->
<g id="node13" class="node">
<title>_core_3d__core_3dmsaa_writeback</title>
<text text-anchor="start" x="1023" y="-338.8" font-family="Helvetica,sans-Serif" font-size="14.00" fill="white">msaa_writeback</text>
<text text-anchor="start" x="1028" y="-328" font-family="Helvetica,sans-Serif" font-size="10.00" fill="red">MsaaWritebackNode</text>
<path fill="none" stroke="white" d="M1029.33,-320C1029.33,-320 1128.67,-320 1128.67,-320 1134.33,-320 1140,-325.67 1140,-331.33 1140,-331.33 1140,-342.67 1140,-342.67 1140,-348.33 1134.33,-354 1128.67,-354 1128.67,-354 1029.33,-354 1029.33,-354 1023.67,-354 1018,-348.33 1018,-342.67 1018,-342.67 1018,-331.33 1018,-331.33 1018,-325.67 1023.67,-320 1029.33,-320"/>
</g>
<!-- _core_3d__core_3dstart_main_pass -->
<g id="node18" class="node">
<title>_core_3d__core_3dstart_main_pass</title>
<text text-anchor="start" x="1292.5" y="-278.8" font-family="Helvetica,sans-Serif" font-size="14.00" fill="white">start_main_pass</text>
<text text-anchor="start" x="1320" y="-268" font-family="Helvetica,sans-Serif" font-size="10.00" fill="red">EmptyNode</text>
<path fill="none" stroke="white" d="M1298.33,-260C1298.33,-260 1399.67,-260 1399.67,-260 1405.33,-260 1411,-265.67 1411,-271.33 1411,-271.33 1411,-282.67 1411,-282.67 1411,-288.33 1405.33,-294 1399.67,-294 1399.67,-294 1298.33,-294 1298.33,-294 1292.67,-294 1287,-288.33 1287,-282.67 1287,-282.67 1287,-271.33 1287,-271.33 1287,-265.67 1292.67,-260 1298.33,-260"/>
</g>
<!-- _core_3d__core_3dmsaa_writeback&#45;&gt;_core_3d__core_3dstart_main_pass -->
<g id="edge23" class="edge">
<title>_core_3d__core_3dmsaa_writeback:e&#45;&gt;_core_3d__core_3dstart_main_pass:w</title>
<path fill="none" stroke="white" d="M1138,-337C1206.69,-337 1215.99,-282.72 1278.88,-277.42"/>
<polygon fill="white" stroke="white" points="1279.15,-280.91 1289,-277 1278.86,-273.91 1279.15,-280.91"/>
</g>
<!-- _core_3d__core_3dshadow_pass -->
<g id="node14" class="node">
<title>_core_3d__core_3dshadow_pass</title>
<text text-anchor="start" x="1032.5" y="-278.8" font-family="Helvetica,sans-Serif" font-size="14.00" fill="white">shadow_pass</text>
<text text-anchor="start" x="1036" y="-268" font-family="Helvetica,sans-Serif" font-size="10.00" fill="red">ShadowPassNode</text>
<path fill="none" stroke="white" d="M1038.33,-260C1038.33,-260 1119.67,-260 1119.67,-260 1125.33,-260 1131,-265.67 1131,-271.33 1131,-271.33 1131,-282.67 1131,-282.67 1131,-288.33 1125.33,-294 1119.67,-294 1119.67,-294 1038.33,-294 1038.33,-294 1032.67,-294 1027,-288.33 1027,-282.67 1027,-282.67 1027,-271.33 1027,-271.33 1027,-265.67 1032.67,-260 1038.33,-260"/>
</g>
<!-- _core_3d__core_3dshadow_pass&#45;&gt;_core_3d__core_3dstart_main_pass -->
<g id="edge24" class="edge">
<title>_core_3d__core_3dshadow_pass:e&#45;&gt;_core_3d__core_3dstart_main_pass:w</title>
<path fill="none" stroke="white" d="M1129,-277C1196.64,-277 1216.03,-277 1278.95,-277"/>
<polygon fill="white" stroke="white" points="1279,-280.5 1289,-277 1279,-273.5 1279,-280.5"/>
</g>
<!-- _core_3d__core_3dend_main_pass -->
<g id="node15" class="node">
<title>_core_3d__core_3dend_main_pass</title>
<text text-anchor="start" x="2927.5" y="-258.8" font-family="Helvetica,sans-Serif" font-size="14.00" fill="white">end_main_pass</text>
<text text-anchor="start" x="2952" y="-248" font-family="Helvetica,sans-Serif" font-size="10.00" fill="red">EmptyNode</text>
<path fill="none" stroke="white" d="M2933.33,-240C2933.33,-240 3028.67,-240 3028.67,-240 3034.33,-240 3040,-245.67 3040,-251.33 3040,-251.33 3040,-262.67 3040,-262.67 3040,-268.33 3034.33,-274 3028.67,-274 3028.67,-274 2933.33,-274 2933.33,-274 2927.67,-274 2922,-268.33 2922,-262.67 2922,-262.67 2922,-251.33 2922,-251.33 2922,-245.67 2927.67,-240 2933.33,-240"/>
</g>
<!-- _core_3d__core_3dui_pass -->
<g id="node19" class="node">
<title>_core_3d__core_3dui_pass</title>
<text text-anchor="start" x="4591" y="-218.8" font-family="Helvetica,sans-Serif" font-size="14.00" fill="white">ui_pass</text>
<text text-anchor="start" x="4561" y="-208" font-family="Helvetica,sans-Serif" font-size="10.00" fill="red">RunGraphOnViewNode</text>
<path fill="none" stroke="white" d="M4567.33,-200C4567.33,-200 4666.67,-200 4666.67,-200 4672.33,-200 4678,-205.67 4678,-211.33 4678,-211.33 4678,-222.67 4678,-222.67 4678,-228.33 4672.33,-234 4666.67,-234 4666.67,-234 4567.33,-234 4567.33,-234 4561.67,-234 4556,-228.33 4556,-222.67 4556,-222.67 4556,-211.33 4556,-211.33 4556,-205.67 4561.67,-200 4567.33,-200"/>
</g>
<!-- _core_3d__core_3dend_main_pass&#45;&gt;_core_3d__core_3dui_pass -->
<g id="edge25" class="edge">
<title>_core_3d__core_3dend_main_pass:e&#45;&gt;_core_3d__core_3dui_pass:w</title>
<path fill="none" stroke="white" d="M3038,-257C3076.81,-257 3081.88,-234.29 3120,-227 3278.95,-196.58 3322.16,-217 3484,-217 3484,-217 3484,-217 4035,-217 4264.04,-217 4323.82,-217 4547.9,-217"/>
<polygon fill="white" stroke="white" points="4548,-220.5 4558,-217 4548,-213.5 4548,-220.5"/>
</g>
<!-- _core_3d__core_3dbloom -->
<g id="node20" class="node">
<title>_core_3d__core_3dbloom</title>
<text text-anchor="start" x="3190.5" y="-258.8" font-family="Helvetica,sans-Serif" font-size="14.00" fill="white">bloom</text>
<text text-anchor="start" x="3133" y="-248" font-family="Helvetica,sans-Serif" font-size="10.00" fill="red">ViewNodeRunner&lt;BloomNode&gt;</text>
<path fill="none" stroke="white" d="M3139.33,-240C3139.33,-240 3284.67,-240 3284.67,-240 3290.33,-240 3296,-245.67 3296,-251.33 3296,-251.33 3296,-262.67 3296,-262.67 3296,-268.33 3290.33,-274 3284.67,-274 3284.67,-274 3139.33,-274 3139.33,-274 3133.67,-274 3128,-268.33 3128,-262.67 3128,-262.67 3128,-251.33 3128,-251.33 3128,-245.67 3133.67,-240 3139.33,-240"/>
</g>
<!-- _core_3d__core_3dend_main_pass&#45;&gt;_core_3d__core_3dbloom -->
<g id="edge27" class="edge">
<title>_core_3d__core_3dend_main_pass:e&#45;&gt;_core_3d__core_3dbloom:w</title>
<path fill="none" stroke="white" d="M3038,-257C3075.22,-257 3087.03,-257 3119.68,-257"/>
<polygon fill="white" stroke="white" points="3120,-260.5 3130,-257 3120,-253.5 3120,-260.5"/>
</g>
<!-- _core_3d__core_3dtonemapping -->
<g id="node28" class="node">
<title>_core_3d__core_3dtonemapping</title>
<text text-anchor="start" x="3438.5" y="-278.8" font-family="Helvetica,sans-Serif" font-size="14.00" fill="white">tonemapping</text>
<text text-anchor="start" x="3389" y="-268" font-family="Helvetica,sans-Serif" font-size="10.00" fill="red">ViewNodeRunner&lt;TonemappingNode&gt;</text>
<path fill="none" stroke="white" d="M3395.33,-260C3395.33,-260 3574.67,-260 3574.67,-260 3580.33,-260 3586,-265.67 3586,-271.33 3586,-271.33 3586,-282.67 3586,-282.67 3586,-288.33 3580.33,-294 3574.67,-294 3574.67,-294 3395.33,-294 3395.33,-294 3389.67,-294 3384,-288.33 3384,-282.67 3384,-282.67 3384,-271.33 3384,-271.33 3384,-265.67 3389.67,-260 3395.33,-260"/>
</g>
<!-- _core_3d__core_3dend_main_pass&#45;&gt;_core_3d__core_3dtonemapping -->
<g id="edge35" class="edge">
<title>_core_3d__core_3dend_main_pass:e&#45;&gt;_core_3d__core_3dtonemapping:w</title>
<path fill="none" stroke="white" d="M3038,-257C3076.81,-257 3081.79,-280.23 3120,-287 3200.52,-301.27 3222.37,-291.96 3304,-287 3337.07,-284.99 3347.33,-278.47 3375.99,-277.21"/>
<polygon fill="white" stroke="white" points="3376.08,-280.71 3386,-277 3375.93,-273.71 3376.08,-280.71"/>
</g>
<!-- _core_3d__core_3dend_main_pass_post_processing&#45;&gt;_core_3d__core_3dui_pass -->
<g id="edge26" class="edge">
<title>_core_3d__core_3dend_main_pass_post_processing:e&#45;&gt;_core_3d__core_3dui_pass:w</title>
<path fill="none" stroke="white" d="M4466,-257C4506.93,-257 4512.67,-223.29 4547.82,-217.76"/>
<polygon fill="white" stroke="white" points="4548.29,-221.24 4558,-217 4547.77,-214.26 4548.29,-221.24"/>
</g>
<!-- _core_3d__core_3dupscaling -->
<g id="node29" class="node">
<title>_core_3d__core_3dupscaling</title>
<text text-anchor="start" x="4825.5" y="-238.8" font-family="Helvetica,sans-Serif" font-size="14.00" fill="white">upscaling</text>
<text text-anchor="start" x="4771.5" y="-228" font-family="Helvetica,sans-Serif" font-size="10.00" fill="red">ViewNodeRunner&lt;UpscalingNode&gt;</text>
<path fill="none" stroke="white" d="M4777.33,-220C4777.33,-220 4940.67,-220 4940.67,-220 4946.33,-220 4952,-225.67 4952,-231.33 4952,-231.33 4952,-242.67 4952,-242.67 4952,-248.33 4946.33,-254 4940.67,-254 4940.67,-254 4777.33,-254 4777.33,-254 4771.67,-254 4766,-248.33 4766,-242.67 4766,-242.67 4766,-231.33 4766,-231.33 4766,-225.67 4771.67,-220 4777.33,-220"/>
</g>
<!-- _core_3d__core_3dend_main_pass_post_processing&#45;&gt;_core_3d__core_3dupscaling -->
<g id="edge37" class="edge">
<title>_core_3d__core_3dend_main_pass_post_processing:e&#45;&gt;_core_3d__core_3dupscaling:w</title>
<path fill="none" stroke="white" d="M4466,-257C4563.88,-257 4588.46,-255.15 4686,-247 4719.01,-244.24 4729.32,-238.32 4757.99,-237.19"/>
<polygon fill="white" stroke="white" points="4758.07,-240.69 4768,-237 4757.94,-233.69 4758.07,-240.69"/>
</g>
<!-- _core_3d__core_3dend_prepasses -->
<g id="node17" class="node">
<title>_core_3d__core_3dend_prepasses</title>
<text text-anchor="start" x="1027" y="-218.8" font-family="Helvetica,sans-Serif" font-size="14.00" fill="white">end_prepasses</text>
<text text-anchor="start" x="1050" y="-208" font-family="Helvetica,sans-Serif" font-size="10.00" fill="red">EmptyNode</text>
<path fill="none" stroke="white" d="M1033.33,-200C1033.33,-200 1124.67,-200 1124.67,-200 1130.33,-200 1136,-205.67 1136,-211.33 1136,-211.33 1136,-222.67 1136,-222.67 1136,-228.33 1130.33,-234 1124.67,-234 1124.67,-234 1033.33,-234 1033.33,-234 1027.67,-234 1022,-228.33 1022,-222.67 1022,-222.67 1022,-211.33 1022,-211.33 1022,-205.67 1027.67,-200 1033.33,-200"/>
</g>
<!-- _core_3d__core_3dend_prepasses&#45;&gt;_core_3d__core_3dstart_main_pass -->
<g id="edge22" class="edge">
<title>_core_3d__core_3dend_prepasses:e&#45;&gt;_core_3d__core_3dstart_main_pass:w</title>
<path fill="none" stroke="white" d="M1134,-217C1204.26,-217 1214.26,-271.28 1278.64,-276.58"/>
<polygon fill="white" stroke="white" points="1278.87,-280.1 1289,-277 1279.15,-273.1 1278.87,-280.1"/>
</g>
<!-- _core_3d__core_3dmain_opaque_pass -->
<g id="node21" class="node">
<title>_core_3d__core_3dmain_opaque_pass</title>
<text text-anchor="start" x="1963.5" y="-258.8" font-family="Helvetica,sans-Serif" font-size="14.00" fill="white">main_opaque_pass</text>
<text text-anchor="start" x="1919" y="-248" font-family="Helvetica,sans-Serif" font-size="10.00" fill="red">ViewNodeRunner&lt;MainOpaquePass3dNode&gt;</text>
<path fill="none" stroke="white" d="M1925.33,-240C1925.33,-240 2134.67,-240 2134.67,-240 2140.33,-240 2146,-245.67 2146,-251.33 2146,-251.33 2146,-262.67 2146,-262.67 2146,-268.33 2140.33,-274 2134.67,-274 2134.67,-274 1925.33,-274 1925.33,-274 1919.67,-274 1914,-268.33 1914,-262.67 1914,-262.67 1914,-251.33 1914,-251.33 1914,-245.67 1919.67,-240 1925.33,-240"/>
</g>
<!-- _core_3d__core_3dstart_main_pass&#45;&gt;_core_3d__core_3dmain_opaque_pass -->
<g id="edge28" class="edge">
<title>_core_3d__core_3dstart_main_pass:e&#45;&gt;_core_3d__core_3dmain_opaque_pass:w</title>
<path fill="none" stroke="white" d="M1409,-277C1454.76,-277 1464.46,-261.47 1510,-257 1686.16,-239.73 1733.76,-256.34 1905.84,-256.98"/>
<polygon fill="white" stroke="white" points="1905.99,-260.48 1916,-257 1906.01,-253.48 1905.99,-260.48"/>
</g>
<!-- _core_3d__core_3ddeferred_opaque_pbr_lighting_pass_3d -->
<g id="node30" class="node">
<title>_core_3d__core_3ddeferred_opaque_pbr_lighting_pass_3d</title>
<text text-anchor="start" x="1535.5" y="-288.8" font-family="Helvetica,sans-Serif" font-size="14.00" fill="white">deferred_opaque_pbr_lighting_pass_3d</text>
<text text-anchor="start" x="1523.5" y="-278" font-family="Helvetica,sans-Serif" font-size="10.00" fill="red">ViewNodeRunner&lt;DeferredOpaquePass3dPbrLightingNode&gt;</text>
<path fill="none" stroke="white" d="M1529.33,-270C1529.33,-270 1812.67,-270 1812.67,-270 1818.33,-270 1824,-275.67 1824,-281.33 1824,-281.33 1824,-292.67 1824,-292.67 1824,-298.33 1818.33,-304 1812.67,-304 1812.67,-304 1529.33,-304 1529.33,-304 1523.67,-304 1518,-298.33 1518,-292.67 1518,-292.67 1518,-281.33 1518,-281.33 1518,-275.67 1523.67,-270 1529.33,-270"/>
</g>
<!-- _core_3d__core_3dstart_main_pass&#45;&gt;_core_3d__core_3ddeferred_opaque_pbr_lighting_pass_3d -->
<g id="edge39" class="edge">
<title>_core_3d__core_3dstart_main_pass:e&#45;&gt;_core_3d__core_3ddeferred_opaque_pbr_lighting_pass_3d:w</title>
<path fill="none" stroke="white" d="M1409,-277C1454.95,-277 1468.55,-285.61 1509.82,-286.85"/>
<polygon fill="white" stroke="white" points="1509.95,-290.35 1520,-287 1510.05,-283.35 1509.95,-290.35"/>
</g>
<!-- _core_3d__core_3dui_pass&#45;&gt;_core_3d__core_3dupscaling -->
<g id="edge38" class="edge">
<title>_core_3d__core_3dui_pass:e&#45;&gt;_core_3d__core_3dupscaling:w</title>
<path fill="none" stroke="white" d="M4676,-217C4714.25,-217 4724.48,-233.71 4757.91,-236.58"/>
<polygon fill="white" stroke="white" points="4757.86,-240.08 4768,-237 4758.15,-233.09 4757.86,-240.08"/>
</g>
<!-- _core_3d__core_3dbloom&#45;&gt;_core_3d__core_3dtonemapping -->
<g id="edge36" class="edge">
<title>_core_3d__core_3dbloom:e&#45;&gt;_core_3d__core_3dtonemapping:w</title>
<path fill="none" stroke="white" d="M3294,-257C3332.25,-257 3342.48,-273.71 3375.91,-276.58"/>
<polygon fill="white" stroke="white" points="3375.86,-280.08 3386,-277 3376.15,-273.09 3375.86,-280.08"/>
</g>
<!-- _core_3d__core_3dmain_transmissive_pass -->
<g id="node22" class="node">
<title>_core_3d__core_3dmain_transmissive_pass</title>
<text text-anchor="start" x="2280.5" y="-258.8" font-family="Helvetica,sans-Serif" font-size="14.00" fill="white">main_transmissive_pass</text>
<text text-anchor="start" x="2241" y="-248" font-family="Helvetica,sans-Serif" font-size="10.00" fill="red">ViewNodeRunner&lt;MainTransmissivePass3dNode&gt;</text>
<path fill="none" stroke="white" d="M2247.33,-240C2247.33,-240 2482.67,-240 2482.67,-240 2488.33,-240 2494,-245.67 2494,-251.33 2494,-251.33 2494,-262.67 2494,-262.67 2494,-268.33 2488.33,-274 2482.67,-274 2482.67,-274 2247.33,-274 2247.33,-274 2241.67,-274 2236,-268.33 2236,-262.67 2236,-262.67 2236,-251.33 2236,-251.33 2236,-245.67 2241.67,-240 2247.33,-240"/>
</g>
<!-- _core_3d__core_3dmain_opaque_pass&#45;&gt;_core_3d__core_3dmain_transmissive_pass -->
<g id="edge30" class="edge">
<title>_core_3d__core_3dmain_opaque_pass:e&#45;&gt;_core_3d__core_3dmain_transmissive_pass:w</title>
<path fill="none" stroke="white" d="M2144,-257C2182.19,-257 2194.2,-257 2227.88,-257"/>
<polygon fill="white" stroke="white" points="2228,-260.5 2238,-257 2228,-253.5 2228,-260.5"/>
</g>
<!-- _core_3d__core_3dmain_transparent_pass -->
<g id="node23" class="node">
<title>_core_3d__core_3dmain_transparent_pass</title>
<text text-anchor="start" x="2627" y="-258.8" font-family="Helvetica,sans-Serif" font-size="14.00" fill="white">main_transparent_pass</text>
<text text-anchor="start" x="2587.5" y="-248" font-family="Helvetica,sans-Serif" font-size="10.00" fill="red">ViewNodeRunner&lt;MainTransparentPass3dNode&gt;</text>
<path fill="none" stroke="white" d="M2593.33,-240C2593.33,-240 2822.67,-240 2822.67,-240 2828.33,-240 2834,-245.67 2834,-251.33 2834,-251.33 2834,-262.67 2834,-262.67 2834,-268.33 2828.33,-274 2822.67,-274 2822.67,-274 2593.33,-274 2593.33,-274 2587.67,-274 2582,-268.33 2582,-262.67 2582,-262.67 2582,-251.33 2582,-251.33 2582,-245.67 2587.67,-240 2593.33,-240"/>
</g>
<!-- _core_3d__core_3dmain_transmissive_pass&#45;&gt;_core_3d__core_3dmain_transparent_pass -->
<g id="edge31" class="edge">
<title>_core_3d__core_3dmain_transmissive_pass:e&#45;&gt;_core_3d__core_3dmain_transparent_pass:w</title>
<path fill="none" stroke="white" d="M2492,-257C2529.22,-257 2541.03,-257 2573.68,-257"/>
<polygon fill="white" stroke="white" points="2574,-260.5 2584,-257 2574,-253.5 2574,-260.5"/>
</g>
<!-- _core_3d__core_3dmain_transparent_pass&#45;&gt;_core_3d__core_3dend_main_pass -->
<g id="edge17" class="edge">
<title>_core_3d__core_3dmain_transparent_pass:e&#45;&gt;_core_3d__core_3dend_main_pass:w</title>
<path fill="none" stroke="white" d="M2832,-257C2869.22,-257 2881.03,-257 2913.68,-257"/>
<polygon fill="white" stroke="white" points="2914,-260.5 2924,-257 2914,-253.5 2914,-260.5"/>
</g>
<!-- _core_3d__core_3dcopy_deferred_lighting_id -->
<g id="node24" class="node">
<title>_core_3d__core_3dcopy_deferred_lighting_id</title>
<text text-anchor="start" x="675" y="-218.8" font-family="Helvetica,sans-Serif" font-size="14.00" fill="white">copy_deferred_lighting_id</text>
<text text-anchor="start" x="643" y="-208" font-family="Helvetica,sans-Serif" font-size="10.00" fill="red">ViewNodeRunner&lt;CopyDeferredLightingIdNode&gt;</text>
<path fill="none" stroke="white" d="M649.33,-200C649.33,-200 878.67,-200 878.67,-200 884.33,-200 890,-205.67 890,-211.33 890,-211.33 890,-222.67 890,-222.67 890,-228.33 884.33,-234 878.67,-234 878.67,-234 649.33,-234 649.33,-234 643.67,-234 638,-228.33 638,-222.67 638,-222.67 638,-211.33 638,-211.33 638,-205.67 643.67,-200 649.33,-200"/>
</g>
<!-- _core_3d__core_3dcopy_deferred_lighting_id&#45;&gt;_core_3d__core_3dend_prepasses -->
<g id="edge21" class="edge">
<title>_core_3d__core_3dcopy_deferred_lighting_id:e&#45;&gt;_core_3d__core_3dend_prepasses:w</title>
<path fill="none" stroke="white" d="M888,-217C944.9,-217 961.63,-217 1013.82,-217"/>
<polygon fill="white" stroke="white" points="1014,-220.5 1024,-217 1014,-213.5 1014,-220.5"/>
</g>
<!-- _core_3d__core_3ddeferred_prepass -->
<g id="node25" class="node">
<title>_core_3d__core_3ddeferred_prepass</title>
<text text-anchor="start" x="362.5" y="-218.8" font-family="Helvetica,sans-Serif" font-size="14.00" fill="white">deferred_prepass</text>
<text text-anchor="start" x="301" y="-208" font-family="Helvetica,sans-Serif" font-size="10.00" fill="red">ViewNodeRunner&lt;DeferredGBufferPrepassNode&gt;</text>
<path fill="none" stroke="white" d="M307.33,-200C307.33,-200 538.67,-200 538.67,-200 544.33,-200 550,-205.67 550,-211.33 550,-211.33 550,-222.67 550,-222.67 550,-228.33 544.33,-234 538.67,-234 538.67,-234 307.33,-234 307.33,-234 301.67,-234 296,-228.33 296,-222.67 296,-222.67 296,-211.33 296,-211.33 296,-205.67 301.67,-200 307.33,-200"/>
</g>
<!-- _core_3d__core_3ddeferred_prepass&#45;&gt;_core_3d__core_3dcopy_deferred_lighting_id -->
<g id="edge32" class="edge">
<title>_core_3d__core_3ddeferred_prepass:e&#45;&gt;_core_3d__core_3dcopy_deferred_lighting_id:w</title>
<path fill="none" stroke="white" d="M548,-217C585.22,-217 597.03,-217 629.68,-217"/>
<polygon fill="white" stroke="white" points="630,-220.5 640,-217 630,-213.5 630,-220.5"/>
</g>
<!-- _core_3d__core_3dfxaa -->
<g id="node26" class="node">
<title>_core_3d__core_3dfxaa</title>
<text text-anchor="start" x="3739.5" y="-278.8" font-family="Helvetica,sans-Serif" font-size="14.00" fill="white">fxaa</text>
<text text-anchor="start" x="3679.5" y="-268" font-family="Helvetica,sans-Serif" font-size="10.00" fill="red">ViewNodeRunner&lt;FxaaNode&gt;</text>
<path fill="none" stroke="white" d="M3685.33,-260C3685.33,-260 3824.67,-260 3824.67,-260 3830.33,-260 3836,-265.67 3836,-271.33 3836,-271.33 3836,-282.67 3836,-282.67 3836,-288.33 3830.33,-294 3824.67,-294 3824.67,-294 3685.33,-294 3685.33,-294 3679.67,-294 3674,-288.33 3674,-282.67 3674,-282.67 3674,-271.33 3674,-271.33 3674,-265.67 3679.67,-260 3685.33,-260"/>
</g>
<!-- _core_3d__core_3dfxaa&#45;&gt;_core_3d__core_3dcontrast_adaptive_sharpening -->
<g id="edge16" class="edge">
<title>_core_3d__core_3dfxaa:e&#45;&gt;_core_3d__core_3dcontrast_adaptive_sharpening:w</title>
<path fill="none" stroke="white" d="M3834,-277C3872.25,-277 3882.48,-293.71 3915.91,-296.58"/>
<polygon fill="white" stroke="white" points="3915.86,-300.08 3926,-297 3916.15,-293.09 3915.86,-300.08"/>
</g>
<!-- _core_3d__core_3dfxaa&#45;&gt;_core_3d__core_3dend_main_pass_post_processing -->
<g id="edge19" class="edge">
<title>_core_3d__core_3dfxaa:e&#45;&gt;_core_3d__core_3dend_main_pass_post_processing:w</title>
<path fill="none" stroke="white" d="M3834,-277C3870.71,-277 3879.39,-269.8 3916,-267 4053.55,-256.47 4090.8,-256.97 4223.83,-257"/>
<polygon fill="white" stroke="white" points="4224,-260.5 4234,-257 4224,-253.5 4224,-260.5"/>
</g>
<!-- _core_3d__core_3dprepass -->
<g id="node27" class="node">
<title>_core_3d__core_3dprepass</title>
<text text-anchor="start" x="88.5" y="-218.8" font-family="Helvetica,sans-Serif" font-size="14.00" fill="white">prepass</text>
<text text-anchor="start" x="33.5" y="-208" font-family="Helvetica,sans-Serif" font-size="10.00" fill="red">ViewNodeRunner&lt;PrepassNode&gt;</text>
<path fill="none" stroke="white" d="M39.33,-200C39.33,-200 192.67,-200 192.67,-200 198.33,-200 204,-205.67 204,-211.33 204,-211.33 204,-222.67 204,-222.67 204,-228.33 198.33,-234 192.67,-234 192.67,-234 39.33,-234 39.33,-234 33.67,-234 28,-228.33 28,-222.67 28,-222.67 28,-211.33 28,-211.33 28,-205.67 33.67,-200 39.33,-200"/>
</g>
<!-- _core_3d__core_3dprepass&#45;&gt;_core_3d__core_3ddeferred_prepass -->
<g id="edge33" class="edge">
<title>_core_3d__core_3dprepass:e&#45;&gt;_core_3d__core_3ddeferred_prepass:w</title>
<path fill="none" stroke="white" d="M202,-217C241,-217 253.26,-217 287.67,-217"/>
<polygon fill="white" stroke="white" points="288,-220.5 298,-217 288,-213.5 288,-220.5"/>
</g>
<!-- _core_3d__core_3dtonemapping&#45;&gt;_core_3d__core_3dcontrast_adaptive_sharpening -->
<g id="edge15" class="edge">
<title>_core_3d__core_3dtonemapping:e&#45;&gt;_core_3d__core_3dcontrast_adaptive_sharpening:w</title>
<path fill="none" stroke="white" d="M3584,-277C3622.81,-277 3627.79,-300.23 3666,-307 3743.9,-320.8 3765.03,-311.8 3844,-307 3877.07,-304.99 3887.33,-298.47 3915.99,-297.21"/>
<polygon fill="white" stroke="white" points="3916.08,-300.71 3926,-297 3915.93,-293.71 3916.08,-300.71"/>
</g>
<!-- _core_3d__core_3dtonemapping&#45;&gt;_core_3d__core_3dend_main_pass_post_processing -->
<g id="edge18" class="edge">
<title>_core_3d__core_3dtonemapping:e&#45;&gt;_core_3d__core_3dend_main_pass_post_processing:w</title>
<path fill="none" stroke="white" d="M3584,-277C3622.81,-277 3627.79,-253.77 3666,-247 3706.83,-239.77 4064.72,-250.02 4152,-253 4184.76,-254.12 4195.39,-256.46 4223.67,-256.92"/>
<polygon fill="white" stroke="white" points="4223.97,-260.42 4234,-257 4224.03,-253.42 4223.97,-260.42"/>
</g>
<!-- _core_3d__core_3dtonemapping&#45;&gt;_core_3d__core_3dfxaa -->
<g id="edge34" class="edge">
<title>_core_3d__core_3dtonemapping:e&#45;&gt;_core_3d__core_3dfxaa:w</title>
<path fill="none" stroke="white" d="M3584,-277C3621.22,-277 3633.03,-277 3665.68,-277"/>
<polygon fill="white" stroke="white" points="3666,-280.5 3676,-277 3666,-273.5 3666,-280.5"/>
</g>
<!-- _core_3d__core_3ddeferred_opaque_pbr_lighting_pass_3d&#45;&gt;_core_3d__core_3dmain_opaque_pass -->
<g id="edge29" class="edge">
<title>_core_3d__core_3ddeferred_opaque_pbr_lighting_pass_3d:e&#45;&gt;_core_3d__core_3dmain_opaque_pass:w</title>
<path fill="none" stroke="white" d="M1822,-287C1862.26,-287 1870.86,-261.72 1905.92,-257.57"/>
<polygon fill="white" stroke="white" points="1906.21,-261.06 1916,-257 1905.82,-254.07 1906.21,-261.06"/>
</g>
<!-- _raytracer__raytracerraytracer_pass -->
<g id="node31" class="node">
<title>_raytracer__raytracerraytracer_pass</title>
<text text-anchor="start" x="64.5" y="-427.8" font-family="Helvetica,sans-Serif" font-size="14.00" fill="white">raytracer_pass</text>
<text text-anchor="start" x="29" y="-417" font-family="Helvetica,sans-Serif" font-size="10.00" fill="red">ViewNodeRunner&lt;RaytracerNode&gt;</text>
<path fill="none" stroke="white" d="M35.33,-409C35.33,-409 196.67,-409 196.67,-409 202.33,-409 208,-414.67 208,-420.33 208,-420.33 208,-431.67 208,-431.67 208,-437.33 202.33,-443 196.67,-443 196.67,-443 35.33,-443 35.33,-443 29.67,-443 24,-437.33 24,-431.67 24,-431.67 24,-420.33 24,-420.33 24,-414.67 29.67,-409 35.33,-409"/>
</g>
<!-- _raytracer__raytracerscreen_pass -->
<g id="node32" class="node">
<title>_raytracer__raytracerscreen_pass</title>
<text text-anchor="start" x="380.5" y="-427.8" font-family="Helvetica,sans-Serif" font-size="14.00" fill="white">screen_pass</text>
<text text-anchor="start" x="343" y="-417" font-family="Helvetica,sans-Serif" font-size="10.00" fill="red">ViewNodeRunner&lt;ScreenNode&gt;</text>
<path fill="none" stroke="white" d="M349.33,-409C349.33,-409 496.67,-409 496.67,-409 502.33,-409 508,-414.67 508,-420.33 508,-420.33 508,-431.67 508,-431.67 508,-437.33 502.33,-443 496.67,-443 496.67,-443 349.33,-443 349.33,-443 343.67,-443 338,-437.33 338,-431.67 338,-431.67 338,-420.33 338,-420.33 338,-414.67 343.67,-409 349.33,-409"/>
</g>
<!-- _raytracer__raytracerraytracer_pass&#45;&gt;_raytracer__raytracerscreen_pass -->
<g id="edge40" class="edge">
<title>_raytracer__raytracerraytracer_pass:e&#45;&gt;_raytracer__raytracerscreen_pass:w</title>
<path fill="none" stroke="white" d="M206,-426C262.07,-426 278.55,-426 329.97,-426"/>
<polygon fill="white" stroke="white" points="330,-429.5 340,-426 330,-422.5 330,-429.5"/>
</g>
<!-- _camera_driver -->
<g id="node33" class="node">
<title>_camera_driver</title>
<text text-anchor="start" x="66" y="-508.8" font-family="Helvetica,sans-Serif" font-size="14.00" fill="white">camera_driver</text>
<text text-anchor="start" x="69" y="-498" font-family="Helvetica,sans-Serif" font-size="10.00" fill="red">CameraDriverNode</text>
<path fill="none" stroke="white" d="M72.33,-490C72.33,-490 159.67,-490 159.67,-490 165.33,-490 171,-495.67 171,-501.33 171,-501.33 171,-512.67 171,-512.67 171,-518.33 165.33,-524 159.67,-524 159.67,-524 72.33,-524 72.33,-524 66.67,-524 61,-518.33 61,-512.67 61,-512.67 61,-501.33 61,-501.33 61,-495.67 66.67,-490 72.33,-490"/>
</g>
</g>
</svg>
